{"title":"Bonnie And Clyde Part One 2013 720p BluRay x264 AC3 DUAL ASM","uid":11393820,"size":5181001033,"categoryP":"video","categoryS":"hd___movies","magnet":"?xt=urn:btih:8939452720a00e809e4c44b174570e4e96bf41cc&amp;dn=Bonnie+And+Clyde+Part+One+2013+720p+BluRay+x264+AC3+DUAL+ASM&amp;tr=udp%3A%2F%2Ftracker.openbittorrent.com%3A80&amp;tr=udp%3A%2F%2Fopen.demonii.com%3A1337&amp;tr=udp%3A%2F%2Ftracker.coppersurfer.tk%3A6969&amp;tr=udp%3A%2F%2Fexodus.desync.com%3A6969","seeders":1,"leechers":0,"uploader":"Alemao99","files":3,"time":1415361176,"description":"Holliday Grainger and Emile Hirsch star in the roles of Clyde Barrow and Bonnie Parker, the infamous duo of the Depression Era with a huge list of criminal deeds that led them to fame. With a knack for always being one step ahead, Bonnie and Clyde manage to escape several times without being caught. Holly Hunter and William Hurt also star in this action-packed series.\n\nTitle in Brazil: Bonnie and Clyde - A Life of Crime\nOriginal Title: Bonnie and Clyde - Part One\nDirector: Bruce Beresford\nDuration: 85 min\nDebut in Brazil: 2014\nGenre: Crime / Biography\nIMDB: http://www.imdb.com/title/tt2707792/\n\nSize: 4.83 GB\nFile extension: .MKV\nVideo Quality: Bluray\nVideo codec: H.264 / AVC\nAudio Codec: AC3 5.1\nResolution: 1280 x 720\nAudio Language: Portuguese / English\nSubtitles: Portuguese\n\n\nFormat                                   : Matroska\nFormat version                           : Version 2\nFile size                                : 4.83 GiB\nDuration                                 : 1h 23mn\nOverall bit rate                         : 8 293 Kbps\nMovie name                               : By alesimba_20\nEncoded date                             : UTC 2014-08-18 20:25:44\nWriting application                      : DVDFab\nWriting library                          : libebml v0.7.8 + libmatroska v0.8.1\n\nVideo\nID                                       : 1\nFormat                                   : AVC\nFormat/Info                              : Advanced Video Codec\nFormat profile                           : &lt;a class=&quot;__cf_email__&quot; href=&quot;/cdn-cgi/l/email-protection&quot; data-cfemail=&quot;aee6c7c9c6eee29a809f&quot;&gt;[email&amp;#160;protected]&lt;/a&gt;&lt;script cf-hash='f9e31' type=&quot;text/javascript&quot;&gt;\n/* &lt;![CDATA[ */!function(){try{var t=&quot;currentScript&quot;in document?document.currentScript:function(){for(var t=document.getElementsByTagName(&quot;script&quot;),e=t.length;e--;)if(t[e].getAttribute(&quot;cf-hash&quot;))return t[e]}();if(t&amp;&amp;t.previousSibling){var e,r,n,i,c=t.previousSibling,a=c.getAttribute(&quot;data-cfemail&quot;);if(a){for(e=&quot;&quot;,r=parseInt(a.substr(0,2),16),n=2;a.length-n;n+=2)i=parseInt(a.substr(n,2),16)^r,e+=String.fromCharCode(i);e=document.createTextNode(e),c.parentNode.replaceChild(e,c)}}}catch(u){}}();/* ]]&gt; */&lt;/script&gt;\nFormat settings, CABAC                   : Yes\nFormat settings, ReFrames                : 2 frames\nCodec ID                                 : V_MPEG4/ISO/AVC\nDuration                                 : 1h 23mn\nBit rate                                 : 6 848 Kbps\nWidth                                    : 1 280 pixels\nHeight                                   : 720 pixels\nDisplay aspect ratio                     : 16:9\nFrame rate                               : 23.976 fps\nColor space                              : YUV\nChroma subsampling                       : 4:2:0\nBit depth                                : 8 bits\nScan type                                : Progressive\nBits/(Pixel*Frame)                       : 0.310\nStream size                              : 3.98 GiB (83%)\nWriting library                          : x264 core\nDefault                                  : Yes\nForced                                   : No\nColor primaries                          : BT.709-5, BT.1361, IEC 61966-2-4, SMPTE RP177\nTransfer characteristics                 : BT.709-5, BT.1361\nMatrix coefficients                      : BT.709-5, BT.1361, IEC 61966-2-4 709, SMPTE RP177\n\nAudio #1\nID                                       : 2\nFormat                                   : AC-3\nFormat/Info                              : Audio Coding 3\nMode extension                           : CM (complete main)\nFormat settings, Endianness              : Big\nCodec ID                                 : A_AC3\nDuration                                 : 1h 23mn\nBit rate mode                            : Constant\nBit rate                                 : 640 Kbps\nChannel(s)                               : 6 channels\nChannel positions                        : Front: L C R, Side: L R, LFE\nSampling rate                            : 48.0 KHz\nBit depth                                : 16 bits\nCompression mode                         : Lossy\nStream size                              : 381 MiB (8%)\nLanguage                                 : English\nDefault                                  : Yes\nForced                                   : No\n\nAudio #2\nID                                       : 3\nFormat                                   : AC-3\nFormat/Info                              : Audio Coding 3\nMode extension                           : CM (complete main)\nFormat settings, Endianness              : Big\nCodec ID                                 : A_AC3\nDuration                                 : 1h 23mn\nBit rate mode                            : Constant\nBit rate                                 : 640 Kbps\nChannel(s)                               : 6 channels\nChannel positions                        : Front: L C R, Side: L R, LFE\nSampling rate                            : 48.0 KHz\nBit depth                                : 16 bits\nCompression mode                         : Lossy\nStream size                              : 381 MiB (8%)\nLanguage                                 : Portuguese\nDefault                                  : No\nForced                                   : No\n\n\n\nSEED PLEASE\n\nENJOY","torrent":{"xt":"urn:btih:8939452720a00e809e4c44b174570e4e96bf41cc","amp;dn":"Bonnie+And+Clyde+Part+One+2013+720p+BluRay+x264+AC3+DUAL+ASM","amp;tr":["udp%3A%2F%2Ftracker.openbittorrent.com%3A80","udp%3A%2F%2Fopen.demonii.com%3A1337","udp%3A%2F%2Ftracker.coppersurfer.tk%3A6969","udp%3A%2F%2Fexodus.desync.com%3A6969"],"infoHash":"8939452720a00e809e4c44b174570e4e96bf41cc","infoHashBuffer":{"type":"Buffer","data":[137,57,69,39,32,160,14,128,158,76,68,177,116,87,14,78,150,191,65,204]},"announce":[],"urlList":[]}}